<svg xmlns="http://www.w3.org/2000/svg" viewBox="0 0 87.27 64"><defs><style>.cls-1{fill:#ed1c24;}</style></defs><title>Connection Error Icon 001</title><g id="Layer_2" data-name="Layer 2"><g id="Layer_1-2" data-name="Layer 1"><path class="cls-1" d="M83.45,35.66a17.06,17.06,0,0,0-9.68-6.11,11.26,11.26,0,0,0,1.86-6.27A11.2,11.2,0,0,0,72.23,15,11.21,11.21,0,0,0,64,11.64a11,11,0,0,0-7.55,2.82A23.27,23.27,0,0,0,47.93,4a22.54,22.54,0,0,0-13-4A22.42,22.42,0,0,0,18.45,6.82a22.42,22.42,0,0,0-6.82,16.45q0,.68.09,2a20,20,0,0,0-8.5,7.43A19.76,19.76,0,0,0,0,43.64,19.62,19.62,0,0,0,6,58a19.61,19.61,0,0,0,14.39,6H69.82A17.46,17.46,0,0,0,87.27,46.55,16.89,16.89,0,0,0,83.45,35.66Zm-25.84,7.6a2.38,2.38,0,0,1,0,3.36L54.25,50a2.38,2.38,0,0,1-3.36,0l-7.26-7.26L36.38,50A2.39,2.39,0,0,1,33,50l-3.36-3.36a2.38,2.38,0,0,1,0-3.36L36.92,36l-7.26-7.26a2.38,2.38,0,0,1,0-3.36L33,22a2.39,2.39,0,0,1,3.36,0l7.26,7.26L50.9,22a2.38,2.38,0,0,1,3.36,0l3.36,3.36a2.38,2.38,0,0,1,0,3.36L50.35,36Z"/></g></g></svg>