<svg xmlns="http://www.w3.org/2000/svg" viewBox="0 0 29.56 22"><defs><style>.cls-1{fill:#fff;}</style></defs><title>Offline Icon 001</title><g id="Layer_2" data-name="Layer 2"><g id="Layer_1-2" data-name="Layer 1"><path class="cls-1" d="M10,4.56a17,17,0,0,1,4.82-.67c.62,0,1.23,0,1.83.1h0L19.92.68l-1-.23a20.85,20.85,0,0,0-8.24,0A22.09,22.09,0,0,0,6.85,1.58,19.58,19.58,0,0,0,.15,5.91.47.47,0,0,0,0,6.26q0,.27,1.14,1.4T2.53,8.79a.53.53,0,0,0,.33-.14A20.21,20.21,0,0,1,8.45,5.09,15.18,15.18,0,0,1,10,4.56Z"/><path class="cls-1" d="M6.42,12.79a.41.41,0,0,0,.18.07,3.76,3.76,0,0,0,.47-.33c.27-.2.64-.45,1.09-.73l.1-.07c.4-.25.86-.5,1.35-.75l5.17-5.17h0A15.5,15.5,0,0,0,10,6.61c-.3.1-.6.19-.9.31a15,15,0,0,0-1.81.86c-.37.21-.74.42-1.08.66A13,13,0,0,0,4.24,10a.46.46,0,0,0-.15.33q0,.27,1.13,1.4A8,8,0,0,0,6.42,12.79Z"/><path class="cls-1" d="M29.41,5.91a19,19,0,0,0-4-3l.83-.83a.47.47,0,0,0,0-.69L25,.15a.47.47,0,0,0-.69,0L19.82,4.64,16.18,8.27l-1.4,1.4h0L12.55,11.9l-8,8a.47.47,0,0,0,0,.69l1.23,1.23a.47.47,0,0,0,.69,0l5.73-5.73c.21-.1.41-.19.66-.29a5.16,5.16,0,0,1,3.87,0,8.91,8.91,0,0,1,1.37.66l.16.09a6.21,6.21,0,0,0,.6.38q.27,0,1.41-1.13t1.14-1.4a.48.48,0,0,0-.15-.35c-.14-.14-.32-.24-.48-.37a8,8,0,0,0-1.62-1,9.22,9.22,0,0,0-.85-.41,10.76,10.76,0,0,0-1.75-.49l1.6-1.6c.23.08.46.15.68.24s.51.23.77.37a17.17,17.17,0,0,1,1.83,1.09c.39.27.79.55,1.2.86a.63.63,0,0,0,.35.12.5.5,0,0,0,.21-.09,8.27,8.27,0,0,0,1.17-1q1.13-1.13,1.13-1.4a.46.46,0,0,0-.15-.33,13,13,0,0,0-1.92-1.56c-.35-.23-.71-.45-1.08-.66s-.78-.41-1.2-.59l1.43-1.43h0A21.26,21.26,0,0,1,26.7,8.65a.52.52,0,0,0,.33.14q.26,0,1.39-1.13t1.14-1.4A.48.48,0,0,0,29.41,5.91Z"/><path class="cls-1" d="M16.34,17.71a4.91,4.91,0,0,0-1.56-.33,4.91,4.91,0,0,0-1.56.33q-.94.33-.94.81a1,1,0,0,0,.25.47,10.28,10.28,0,0,0,.84.93l.44.42c.48.45.81.68,1,.68s.48-.23,1-.68l.44-.42A10.14,10.14,0,0,0,17,19a1,1,0,0,0,.25-.47Q17.28,18,16.34,17.71Z"/></g></g></svg>