<svg xmlns="http://www.w3.org/2000/svg" viewBox="0 0 30 44"><defs><style>.cls-1{fill:#fff;}</style></defs><title>Asset 1@1x</title><g id="Layer_2" data-name="Layer 2"><g id="Layer_1-2" data-name="Layer 1"><circle class="cls-1" cx="15" cy="30.5" r="4.5"/><circle class="cls-1" cx="15" cy="30.5" r="4.5"/><path class="cls-1" d="M28.83,6.83,23.17,1.17A4,4,0,0,0,20.34,0H9.66A4,4,0,0,0,6.83,1.17L1.17,6.83A4,4,0,0,0,0,9.66V41.5A2.5,2.5,0,0,0,2.5,44h25A2.5,2.5,0,0,0,30,41.5V9.66A4,4,0,0,0,28.83,6.83ZM12,4h6a2,2,0,0,1,0,4H12a2,2,0,0,1,0-4Zm3,34a7.5,7.5,0,0,1-2-14.72V16a2,2,0,0,1,4,0v7.28A7.5,7.5,0,0,1,15,38Z"/><path class="cls-1" d="M28.83,6.83,23.17,1.17A4,4,0,0,0,20.34,0H9.66A4,4,0,0,0,6.83,1.17L1.17,6.83A4,4,0,0,0,0,9.66V41.5A2.5,2.5,0,0,0,2.5,44h25A2.5,2.5,0,0,0,30,41.5V9.66A4,4,0,0,0,28.83,6.83ZM12,4h6a2,2,0,0,1,0,4H12a2,2,0,0,1,0-4Zm3,34a7.5,7.5,0,0,1-2-14.72V16a2,2,0,0,1,4,0v7.28A7.5,7.5,0,0,1,15,38Z"/></g></g></svg>